<?xml version="1.0" encoding="utf-8"?>
<!-- Generator: Adobe Illustrator 28.3.0, SVG Export Plug-In . SVG Version: 6.00 Build 0)  -->
<svg version="1.1" id="Capa_1" xmlns="http://www.w3.org/2000/svg" xmlns:xlink="http://www.w3.org/1999/xlink" x="0px" y="0px"
	 viewBox="0 0 595.28 841.89" style="enable-background:new 0 0 595.28 841.89;" xml:space="preserve">
<style type="text/css">
	.st0{fill:#949A9F;}
	.st1{fill:#ECEDF1;}
	.st2{fill:#6C767C;}
	.st3{fill:#CE2327;}
	.st4{fill:#595A5C;}
	.st5{fill:#595B5D;}
	.st6{fill:#595B5C;}
	.st7{fill:#737C82;}
	.st8{fill:#717A80;}
	.st9{fill:#6E787E;}
	.st10{fill:#70797F;}
	.st11{fill:#727B81;}
	.st12{fill:#717B80;}
	.st13{fill:#757E83;}
	.st14{fill:#707A80;}
	.st15{fill:#767E84;}
	.st16{fill:#747C82;}
	.st17{fill:#757E84;}
	.st18{fill:#6F7A7E;}
	.st19{fill:#747D83;}
	.st20{fill:#778085;}
	.st21{fill:#707A7F;}
	.st22{fill:#757F84;}
	.st23{fill:#727B80;}
	.st24{fill:#717B81;}
	.st25{fill:#707980;}
	.st26{fill:#6F7980;}
	.st27{fill:#8C9498;}
	.st28{fill:#787F83;}
	.st29{fill:#999FA2;}
	.st30{fill:#7B8489;}
</style>
<path class="st0" d="M270.42,255.59c0-0.39,0-0.77,0.01-1.16c2.26,0.12,5.57-1.89,5.74,3.38
	C274.52,255.4,272.6,255.01,270.42,255.59z"/>
<g>
	<path class="st1" d="M292.83,258.52c1.06,3.18,0.54,6.36-0.04,9.53C292.8,264.87,292.82,261.69,292.83,258.52z"/>
	<path class="st1" d="M295.53,258.57c-0.87-1.25-1.75-1.07-2.63-0.01c-0.47-0.24-1.41-0.79-0.86-1.05c1.41-0.65,3.19-0.88,4.47,0.21
		C297.08,258.22,296.03,258.44,295.53,258.57z"/>
	<g>
		<path class="st2" d="M162.33,549.72c6.32-6.06,13.63-11.16,18.48-18.72c2.96,1.46,3.4,2.66,0.39,5.43
			c-5.49,5.07-11.15,10.07-15.64,16.13c-0.94,1.28-1.71,1.46-2.67,0.14C162.69,551.71,161.61,550.89,162.33,549.72z"/>
		<path class="st3" d="M359.58,315.53c-0.9,0.51-1.32,0.78-1.78,0.99c-6.19,2.9-12.14,6.74-18.65,8.43
			c-6.91,1.79-12.45-4.1-18.71-6.26c-66.8-23.12-139.04,19.88-148.97,89.45c-5.6,39.24,6.6,72.81,35.51,99.98
			c3.97,3.73,3.85,6.84,1.84,10.87c-1.37,2.75-3.4,4.93-6.1,6.46c-3.51,1.99-6.37,2.17-9.74-1.07
			c-38.59-37.14-52.92-82.13-39.19-133.66c13.67-51.31,48.3-83.79,100.11-96.1c36.84-8.75,71.59-1.63,103.37,19.17
			C357.96,314.24,358.59,314.78,359.58,315.53z"/>
		<path class="st3" d="M365.63,319.85c13.47,10.63,24.11,22.81,32.57,36.96c32.79,54.86,21.75,125.83-26.05,168.35
			c-4.07,3.62-7.62,2.27-11.42,0.5c-4.54-2.12-7.22-5.84-8.01-10.78c-0.29-1.83,1.56-2.43,2.63-3.36
			c27.28-23.61,41.1-53.44,40.36-89.47c-0.61-29.65-12.05-55.07-32.76-76.24c-2.08-2.13-2.57-3.92-1.92-6.54
			C362.58,333.01,364.01,326.73,365.63,319.85z"/>
		<path class="st4" d="M362.83,317.82c-3.53,15.44-6.92,30.31-10.34,45.17c-4.55,19.78-9.25,39.54-13.61,59.36
			c-0.89,4.03-2.6,6.35-6.53,7.66c-8.68,2.89-17.23,6.16-25.84,9.25c-2.58,0.93-3.82,0.58-3.66-2.76
			c1.38-29.15,2.66-58.31,3.77-87.47c0.15-3.82,1.32-5.8,4.94-7.44c15.79-7.13,31.41-14.65,47.09-22.02
			C359.81,319.03,361.02,318.57,362.83,317.82z"/>
		<path class="st4" d="M207.16,496.38c-29.8-29.55-39.1-83.77-11.61-126.27c29.74-45.97,86.6-58.41,129.85-38.47
			c-7.42,3.56-14.46,7-21.58,10.26c-0.91,0.42-2.28,0.03-3.4-0.2c-48.81-9.78-95.53,22.73-102.87,71.99
			c-3.3,22.17,1.62,42.75,14.43,61.25c1.66,2.4,1.96,3.97,0.13,6.42C208.95,485.6,207.87,490.71,207.16,496.38z"/>
		<path class="st4" d="M358.03,497.46c-0.61-6.24-1.77-11.82-5.28-16.49c-1.73-2.3-0.39-3.59,0.76-5.21
			c10.42-14.75,15.46-31.24,15.93-49.2c0.02-0.61-0.14-1.22-0.33-2.63c-7.45,7.09-14.94,13.07-23.32,17.84
			c-2.03,1.15-3.94,2.83-6.12,3.33c-6.34,1.44-7.93,6-8.96,11.55c-1.33,7.2-3.38,14.26-4.79,21.44c-0.58,2.96-1.48,4.08-4.58,3.09
			c-5.59-1.78-11.34-2.92-17.23-2.74c-2.31,0.07-2.73-0.65-2.67-2.83c0.26-8.34,0.42-16.69,0.34-25.03
			c-0.03-2.88,1.29-3.58,3.73-4.14c17.24-3.96,33.05-11.29,48-20.59c3.99-2.48,7.6-5.45,10.61-9.08c5.89-7.12,5.31-13.69-1.76-19.55
			c-1.53-1.26-3.26-2.27-4.99-3.46c1.86-1.33,3.35,1.1,5.42,0.15c-1.78-5.86-5.05-10.98-8.38-16.04c-1.2-1.83-1.57-3.33-0.97-5.52
			c1.56-5.72,2.74-11.54,4.15-17.65C394.79,390.73,397.8,457.08,358.03,497.46z"/>
		<path class="st3" d="M296.46,386.81c-0.69,17.15-1.42,34.29-2.01,51.44c-0.11,3.16-1.09,4.69-4.46,5.27
			c-7.07,1.2-14.09,2.55-21.26,3.08c-2.74,0.2-3.77-0.61-4.16-3.38c-2.9-20.44-5.84-40.88-9.04-61.28c-0.66-4.21,0.15-6.5,4.26-8.43
			c11.44-5.39,22.65-11.27,33.89-17.09c3.06-1.59,4.2-1.7,4.06,2.45c-0.31,9.31-0.1,18.64-0.1,27.96
			C297.25,386.81,296.86,386.81,296.46,386.81z"/>
		<path class="st4" d="M225.28,441.28c-1.2-1.08-2.34-2.05-2.95-3.77c-3.58-10.01-7.31-19.97-11.12-29.89
			c-0.78-2.02-0.92-3.12,1.4-4.22c11.11-5.26,22.13-10.72,33.55-16.29c3.39,19.36,6.67,38.33,10.08,57.27
			c0.51,2.86-1.08,2.48-2.8,2.45c-9.76-0.18-19.1-2.44-28.25-5.64L225.28,441.28z"/>
		<path class="st5" d="M199.15,548.58c42.05-20.62,85.82-25.82,131.3-14.64c12.39,3.05,24.58,6.83,35.4,14.02
			c-27.2-7.75-54.94-10.83-83.01-10.38C254.57,538.04,226.61,541.6,199.15,548.58z"/>
		<path class="st6" d="M225.19,441.19c7.04,5.88,15.16,9.27,24.24,10.31c7.86,0.89,7.88,0.81,9.32,8.58
			c0.85,4.58,1.57,9.19,2.56,13.74c0.58,2.66-0.04,3.95-2.89,4.42c-5.41,0.9-10.78,2.11-16.16,3.21c-1.89,0.38-3.37,0.55-4.27-1.93
			c-4.3-11.88-8.8-23.7-13.24-35.53c-0.39-1.04-0.32-1.94,0.54-2.71C225.28,441.28,225.19,441.19,225.19,441.19z"/>
		<path class="st3" d="M280.89,477.24c-3.64,0-8.45,1.4-10.6-0.39c-2.13-1.78-1.58-6.76-2.19-10.35c-0.22-1.32-0.43-2.63-0.6-3.96
			c-1.25-10.03-1.24-9.98,9.02-10.96c4.65-0.44,9.31-0.95,13.89-1.84c2.88-0.55,3.43,0.29,3.27,2.95
			c-0.44,7.32-0.75,14.66-0.93,21.99c-0.06,2.46-1.04,3.11-3.35,2.96c-2.83-0.19-5.68-0.05-8.52-0.05
			C280.89,477.48,280.89,477.36,280.89,477.24z"/>
		<path class="st7" d="M432.65,400.48c7.71,2.17,14.47,4.07,21.99,6.18c-8.08,3.84-16.91,3.68-23.34,9.07
			c-1.39-3.14-0.57-5.14,3.77-5.98c3.62-0.7,7.37-1.52,11.34-3.79c-6.26-1.78-11.78-3.36-18.07-5.15
			c4.44-4.91,9.88-7.86,15.04-12.47c-5.56,0.58-10.16,0.97-14.73,1.61c-1.34,0.19-2.3,0.49-2.48-1.24
			c-0.12-1.15,0.61-1.31,1.54-1.36c7.27-0.36,14.54-0.75,22.26-0.26C444.43,391.37,438.89,395.66,432.65,400.48z"/>
		<path class="st8" d="M148.51,519.75c4.65-3.38,9.3-6.77,14.63-10.65c-0.05,9.28-2.42,17.55-2.96,26.83
			c5.12-4.13,9.97-7.25,13.7-11.91c1.15,0.54,1.94,1.74,2.42,2.88c-5.58,2.2-9.52,6.59-14.09,10.06c-1.58,1.37-1.96,4.39-5.05,3.7
			c-2.06-4.49,0.23-8.84,0.73-13.18c0.34-3-0.04-6.19,1.29-9.11c0.34-0.76,0.31-2.06-0.73-2.62c-1.01-0.54-1.84,0.03-2.63,0.74
			c-2.92,2.64-5.88,5.24-8.82,7.85c-1.19,2.67-2.54,1.43-3.63,0.02c-1.04-1.34-0.01-2.02,1.15-2.6
			C145.85,521.1,147.02,520.11,148.51,519.75z"/>
		<path class="st9" d="M192.33,302.96c-2.5-3.81-6.21-6.47-9.38-9.63c-1.47-1.47-0.47-1.85,0.21-2.58c0.86-0.94,1.35-0.72,2.21,0.38
			c4.5,5.76,9.19,11.37,14.47,17.83c-9.33,0.53-17.67-1.89-27.27-1.8c4.24,4.59,7.76,8.52,11.45,12.28c0.9,0.92,1.35,1.35,0.14,2.17
			c-0.61,0.41-1.19,1.4-1.93,0.19c-3.84-6.3-9.45-11.12-13.95-16.87c-0.28-0.35-0.23-0.96-0.38-1.65
			c6.82,0.55,13.48,2.14,20.28,1.82c2.09,1.14,4.17,0.01,6.25-0.04C193.13,304.97,192.93,303.77,192.33,302.96z"/>
		<path class="st10" d="M432.39,461.46c6.34,1.73,11.39,3,16.65,2.44c1.29-0.14,1.95-0.2,1.93,1.08c-0.02,1.14-0.22,2.24-2.06,1.85
			c-5-1.07-10.06-1.83-15.05-2.95c-2.04-0.46-4.37,0.02-6.52-1.7c6.47-5.86,13.98-9.87,21.34-15.65c-6.65-1.02-12.32-2.6-18.49-1.94
			c0.68-1.24-0.42-3.5,2.74-2.79c5.68,1.28,11.5,1.93,17.21,3.12c1.21,0.25,3.43-0.51,3.61,1.57c0.13,1.52-1.7,1.7-2.78,2.42
			C445.05,452.83,439.2,456.85,432.39,461.46z"/>
		<path class="st11" d="M375.93,533.08c-2.56,3.85-5.15,7.52-3.45,12.72c2.08,6.34,5.9,9.61,11.42,8.87
			c5.03-0.67,8.13-4.54,7.87-9.8c-0.33-6.58-4.76-11.72-10.44-12.03c-1.15-0.06-2.31,0.21-3.47,0.33c3.67-3.39,7.56-2.12,11.18-0.16
			c4.06,2.19,6.56,8.12,5.71,12.41c-1.12,5.6-6.4,10.33-12.52,11.21c-4.61,0.66-11.25-2.82-13.57-7.1
			C366.54,545.63,370.73,536.15,375.93,533.08z"/>
		<path class="st7" d="M388.2,293.08c-5.23-1.95-10.14-2.69-14.2,2.54c-3.64,4.69-4.31,10.22-1.25,14.18
			c2.8,3.62,6.56,4.52,10.67,2.94c4.85-1.86,8.46-9.13,7.48-14.01c-0.37-1.81-2.21-2.96-2-4.96c6.05,5.3,6.72,11.3,1.88,16.88
			c-4.82,5.55-12.45,6-18.35,1.08c-5.27-4.39-6.03-11.63-2.03-17.02C375.17,288.25,383.41,288.75,388.2,293.08z"/>
		<path class="st12" d="M434.23,350.2c2.75-4.22,1.95-8.25-2.08-12.76c-3.35-3.75-7.7-4.5-12.71-2.2c-6.43,2.96-9.54,8.66-8.4,15.37
			c0.88,5.2,4.08,8.32,9.09,8.88c-3.85,2.48-4.43,2.41-7.03-0.84c-5.6-7-6.45-14.46-2.92-20.31c5.45-9.01,19.56-8.85,25.41,1.29
			c0.91,1.58,1.6,3.28,2.43,4.91C439.74,347.91,438.75,349.74,434.23,350.2z"/>
		<path class="st8" d="M115.09,444.27c4.77-0.3,9.54-0.57,14.31-0.92c5.42-0.39,9.78-4.44,7.76-9.53c-1.26-3.15-3.67-4.36-6.91-4.57
			c-4.82-0.31-9.47,0.9-14.19,1.39c-2.35-1.16-2.15-2.36-0.05-3.58c4.01,0.62,8-0.05,12-0.18c7.12-0.25,10.97,2.87,11.26,9.06
			c0.32,6.84-2.93,10.11-10.33,10.52c-3.98,0.22-8.04-0.32-11.87,1.28C114.62,447.6,116.14,445.21,115.09,444.27z"/>
		<path class="st13" d="M438.05,421.33c-4.3,0.18-6.13,2.65-5.92,6.69c0.22,4.23,2.3,6.72,6.88,6.41c4.41,0.75,8.82,0.76,13.22-0.01
			c1.15,0.41,1.74-0.6,2.72-1.16c0,1.72,0,3.31,0,4.85c-4.48-1.56-9.06-0.57-13.56-0.81c-7.91-0.43-11.9-5.07-10.49-12.33
			c0.96-4.97,4-7.15,10.23-7.53c4.53-0.27,9.15,0.82,14.25-1.16c-1.26,1.78,1.63,4.23-1.93,4.95
			C448.31,420.66,443.17,420.48,438.05,421.33z"/>
		<path class="st14" d="M152.17,366.08c-6.82-4.91-14.7-7.67-21.97-11.51c-1.52-0.8-1.87,0.7-2.42,1.72c-1.17,2.2-2.24,4.4-2.01,7.4
			c-1.87-0.95-3-1.63-1.89-3.79c2.71-5.27,5.26-10.62,7.91-15.93c0.62-1.25,1.67-2.65,3.02-1.4c1.95,1.8-0.9,1.84-1.46,2.58
			c-3.44,4.6-3.27,5.77,1.78,8.24c4.94,2.42,9.71,5.35,14.89,7.04C154.5,361.87,154.74,363.37,152.17,366.08z"/>
		<path class="st15" d="M220.3,274.64c-7.13-1.13-13.94,2.54-14.85,7.8c-0.96,5.55,3.82,12.01,9.77,13.21
			c5.5,1.11,10.61-2.04,11.6-7.17c2.07,3.01,2.26,3.54,0.32,5.04c-9.55,7.39-20.49,6.2-24.19-5.13c-1.91-5.85,1.45-9.13,5.03-12.29
			c2.32-2.04,5.36-3.21,8.42-4C218.26,271.63,219.71,272.04,220.3,274.64z"/>
		<path class="st16" d="M445.05,481.26c1.07,3.89-0.87,5.54-1.59,7.5c-1.36,3.71-2.95,7.33-4.25,11.07
			c-0.39,1.14-0.8,1.82-1.98,1.58c-0.6-0.12-1.45-0.5-1.62-0.97c-0.5-1.41,1.03-0.69,1.53-1.19c2.82-2.81,2.49-5.44-1.21-7.28
			c-2.61-1.3-5.45-2.15-8.04-3.5c-2.67-1.39-5.52-1.85-8.48-2.2c0.07-2.1,1.07-3.62,1.66-4.8c6,3.55,12.52,5.47,18.72,8.1
			c1.81,0.77,2.27-0.71,2.76-1.96C443.24,485.88,443.91,484.17,445.05,481.26z"/>
		<path class="st16" d="M313.72,273.92c2.64-0.99,5.6-1.31,6.22-4.89c0.39-2.25,0.08-4.33-1.79-5.9c-2.53-2.13-5.01-1.43-5.6,1.78
			c-1.13,6.16-3,12.22-2.81,18.58c-4.14-0.1-3.94-0.05-3.12-4.09c1.21-5.98,3.2-11.91,2.7-18.08c-0.17-2.06,1.07-1.44,1.51-1.26
			c2.2,0.87,4.58,0.62,6.76,1.19c2.96,0.78,5.41,2.19,5.26,6.14c-0.15,3.95-2.33,5.66-5.66,6.49
			C316.09,274.15,314.88,273.92,313.72,273.92z"/>
		<path class="st17" d="M334.98,289.85c-4.98,0.46-8.67-2.38-12.6-2.97c2.95-7.35,5.69-14.62,6.69-22.68
			c3.13,0.86,6.7,1.86,10.29,2.82c1.55,0.41,1.15,1.2,0.58,2.17c-1.26,2.15-1.08-0.32-1.57-0.51c-1.94-0.74-4.21-2.89-5.83-1.14
			c-1.54,1.65-2.49,4.58-2.33,6.85c0.15,2.17,3.27,1.62,5.03,2.37c1.02,0.43,2.05,0.73,1.35,1.98c-0.68,1.22-1.26-0.09-1.91-0.31
			c-1.78-0.59-3.97-2.7-5.35-0.78c-1.56,2.17-2.82,5.15-2.3,7.92c0.47,2.53,3.27,2.31,5.36,2.68
			C333.1,288.37,334.02,287.82,334.98,289.85z"/>
		<path class="st16" d="M134.05,503.42c-1-0.25-2.39,0.53-2.83-1.2c-1.54-6.16-6.38-11.02-6.92-17.58c0.44-0.69,1.05-0.94,1.85-0.76
			c2.42,1.2,0.52,3.59,1.49,5.41c1.2,2.25,2,2.96,4.42,1.83c4.64-2.18,9.61-3.73,14.06-6.24c3.28-1.84,4.28-1.05,4.7,2.25
			c-5.4,1.06-10.21,3.72-15.25,5.76c-6.1,2.47-6.2,3.22-1.55,8.7C134.71,502.18,134.59,502.8,134.05,503.42z"/>
		<path class="st8" d="M164.81,341.42c0.11,4.4-2.78,7.29-4.98,10.49c-0.49,0.71-1.13-0.03-1.64-0.43
			c-5.39-4.21-11.08-7.99-17.14-11.15c-1.37-0.71-1.3-1.41-0.82-2.23c1.4-2.36,2.91-4.67,4.5-6.91c0.57-0.81,1.51-1.46,2.5-0.38
			c1.53,1.66-0.7,1.18-1.07,1.73c-1.07,1.59-3.72,3.12-2.61,4.87c1.23,1.93,3.76,3.46,6.03,4.18c2.17,0.69,2.3-2.27,3.45-3.5
			c0.8-0.87,1.16-3,2.74-1.09c1.33,1.61-1.18,1.04-1.51,1.97c-0.53,1.48-3.01,2.92-1.86,4.21c1.82,2.03,4.4,3.59,6.94,4.67
			c1.89,0.8,2.72-1.45,3.59-2.78C163.69,343.94,164.2,342.65,164.81,341.42z"/>
		<path class="st18" d="M138.89,417.7c-6.6-1.87-13.41-2.19-20.12-2.18c-4.06,0.01-1.87,3.97-2.5,6.18
			c-0.26,0.91,2.4,1.71,0.07,2.44c-1.21,0.38-2.12-0.69-1.95-1.63c1.06-5.99,0.03-12.16,1.67-18.09c0.39-1.42,1.6-1.31,2.38-0.93
			c1.82,0.88-0.27,1.33-0.48,1.87c-2.05,5.34-1.28,6.69,4.35,7.12c4.32,0.33,8.67,1.1,12.96,0.88
			C139.35,413.13,139.78,414.74,138.89,417.7z"/>
		<path class="st19" d="M119.41,451.13c-2.15,2.44-1.47,5.29-0.14,7.46c1.29,2.1,3.63,0.19,5.46-0.11
			c3.77-0.62,7.54-1.32,11.26-2.21c1.78-0.43,3.96-0.36,4.6-2.98c1.9,4.48-0.2,5.64-3.79,6.12c-4.11,0.55-8.18,1.46-12.26,2.26
			c-4.76,0.93-5.24,2.17-3.61,6.75c0.34,0.96,3.51,1.42,1.09,2.73c-2.19,1.19-2.65-0.96-2.85-2.7c-0.04-0.33-0.18-0.64-0.27-0.96
			c-2.13-2.46-1.65-5.45-1.69-8.33c-1.2-2.53-1.5-5.19-1.24-7.95C117.11,450.7,118.26,450.93,119.41,451.13z"/>
		<path class="st20" d="M137.04,511.39c1.77,1.03,3.07,3.3,5.66,2.15c2.47-1.1,2.29-3.42,2.55-5.55c0.14-1.16,0.4-2.3,0.54-3.46
			c0.5-4.03,2.2-7.11,6.64-7.49c3.4-0.3,7.08,3.57,8.15,7.65c0.62,2.39-0.68,2.92-2.58,3.57c0.16-1.36,0.53-2.59,0.4-3.78
			c-0.28-2.66-1.31-4.96-4.44-5.14c-3.25-0.19-4.25,2.11-4.69,4.76c-0.74,4.36-0.29,9.21-5.19,11.72
			C137.84,516.31,137,515.78,137.04,511.39z"/>
		<path class="st21" d="M272.57,281.17c3.3-4.06,3.17-6.5-0.64-9.66c-2.3-1.91-4.93-3.47-7-5.59c-4.08-4.17-2.88-9.24,2.55-11.8
			c0.65,0.54,0.65,1.09-0.01,1.62c-3.68,3.13-2.78,5.94,0.61,8.57c2.37,1.83,5,3.39,7.07,5.51c4.25,4.34,3.03,9.65-2.56,12.33
			c-0.29-0.21-0.39-0.42-0.3-0.64C272.38,281.28,272.47,281.17,272.57,281.17z"/>
		<path class="st11" d="M155.04,325.12c2.4,5.36,6.28,8.52,12.41,8.17c5.33-0.3,8.6-3.29,11.15-10.22c2.68,3.42-0.32,5.24-1.88,7.08
			c-5.09,6.03-10.29,7.77-15.7,5.59c-5.47-2.2-8.04-6.72-7.73-13.57C155.84,321.99,153.91,324.47,155.04,325.12z"/>
		<path class="st22" d="M293.64,282.03c-8.25,1.04-11.77-2.04-11.96-10.2c-0.1-4.53,1.37-9.14-0.46-13.77c1.7,0,3.49,0,5.29,0
			c-2.09,5.77-2.47,11.71-1.53,17.51c0.7,4.29,4.28,6.02,8.65,5.64c0.38,0.18,0.51,0.36,0.38,0.54
			C293.89,281.94,293.76,282.03,293.64,282.03z"/>
		<path class="st23" d="M355.8,299.08c2.95,0.96,3.73-1.63,4.71-3.25c2.63-4.31,5.19-8.71,7.25-13.3c1.08-2.41,2.02-1.41,3.37-0.79
			c1.79,0.82,1.27,1.12,0.21,2.61c-4.11,5.81-7.76,11.95-10.89,18.7c-1.46-1.65-4.43-1.13-4.57-4.07
			C355.89,299,355.8,299.08,355.8,299.08z"/>
		<path class="st7" d="M422.27,376.04c5.88,5.83,14.56,5.03,19.29-1.61c3.2-4.49,0.43-8.56-0.47-12.79
			c4.23,5.67,4.68,12.2,1.16,16.79c-3.43,4.49-9.02,5.41-16.83,2.78c-2.02-0.72-3.76-1.69-3.85-4.18
			C421.58,376.55,421.81,376.22,422.27,376.04z"/>
		<path class="st8" d="M207.43,303.86c-1.89,2.09-3.22,2.86-5.34-1c-3.23-5.86-6.2-12.12-12.05-16.11c2.6-2.6,4.1-3.15,6.24,0.82
			C199.37,293.3,202.81,299.01,207.43,303.86z"/>
		<path class="st7" d="M440.67,361.23c-3.86-0.7-7.6-2.03-11.64-0.22c-6.5,2.91-8.57,7.19-6.76,15.03
			c-0.14,0.14-0.28,0.28-0.42,0.42c-0.33,0.23-0.6,0.17-0.81-0.18c-2.24-5.96-2.63-11.6,2.83-16.2
			C428.96,355.78,435.27,356.23,440.67,361.23z"/>
		<path class="st24" d="M123.16,481.26c-2.07-3.24-1.2-4.86,2.58-5.76c5.15-1.23,10.34-2.59,15.2-4.62
			c3.38-1.41,4.71-1.03,4.83,2.54c-7.17,1.06-13.93,3.66-20.75,6.03c-0.94,0.33-1.09,1.16-1.17,2
			C123.48,481.95,123.24,481.91,123.16,481.26z"/>
		<path class="st25" d="M394.95,525.57c0.42,5.69,5.68,8.25,8.21,12.59c1.07,1.83,2.87,3.23,4.37,4.87
			c-1.51,2.32-2.61,2.59-4.64-0.01c-4.18-5.33-7.66-11.22-12.83-15.87c1.63-1.14,2.56-3.79,4.99-1.49
			C395.04,525.67,394.95,525.57,394.95,525.57z"/>
		<path class="st11" d="M448.07,476.16c-0.04,0.94-0.77,1.49-2.25,1.06c-6.51-1.9-13-3.87-19.54-5.65
			c-1.93-0.53-1.26-1.69-0.92-2.63c0.21-0.59,0.15-1.97,1.89-1.1c5.94,2.97,12.52,4.12,18.83,6.03
			C447,474.16,448.14,474.18,448.07,476.16z"/>
		<path class="st26" d="M293.64,282.03c0.01-0.27,0.01-0.54,0-0.82c3.19-1.75,4.81-4.49,5.07-8.08c0.74-4.43,0.67-8.87,0.05-13.31
			l0.09,0.06c1.3-1.97,2.31-1.97,3.68,0.02c-1.78,3.88-0.49,8.01-0.97,12C300.75,278.54,299.03,280.9,293.64,282.03z"/>
		<path class="st27" d="M155.04,325.12c-0.59-0.98-1.17-1.96-1.76-2.95c0.65-6.37,8.02-13.02,12.15-10.45
			C158.97,314,154.67,317.84,155.04,325.12z"/>
		<path class="st28" d="M272.57,281.17c0.01,0.32,0.02,0.65,0.02,0.97c-6.73,2.45-8.94,1.42-8.71-4.39
			C265.8,281.81,268.81,282.55,272.57,281.17z"/>
		<path class="st29" d="M138.13,334.75c0.42-2.77-0.91-5.46,2.95-6.95C140.69,330.54,140.18,332.56,138.13,334.75z"/>
		<g>
			<path class="st30" d="M395.04,525.67c0-0.04,0.01-0.07,0.02-0.1c-0.04,0-0.07,0-0.11,0L395.04,525.67z"/>
			<path class="st30" d="M415.14,530.32c-5.75-1.62-6.6-5.67-2.06-10.7c-0.52-0.05-1.03-0.09-1.55-0.14
				c-2.91,3.8-7.23,2.29-10.98,2.89c-2.3,0.37-5-0.12-5.49,3.19c3.12,0.04,6.26,0.31,9.36,0.04c2.65-0.23,3.96,0.85,4.63,3.17
				c0.73,2.54,2,4.78,4.9,4.77c3.29-0.01,5.97-1.41,7.03-4.86C419,529.08,417.58,531.01,415.14,530.32z"/>
		</g>
		<path class="st8" d="M411.98,508.56c3.67,1.22,7.5,0.76,11.22,1.51c3.4,0.69,6.97,1.05,10.98,0.35
			c-4.65-5.46-8.9-10.56-13.29-15.53c-1.21-1.37-2.35-4.9-3.65-3.74c-3.05,2.72,1.67,3.14,2.57,4.81c1.1,2.04,3.02,3.4,1.12,6.07
			c-1.54,2.17-2.39,4.89-6,3.67c-4.2-1.42-7.15,0.03-8.99,4.1c-0.6,1.32-1.73,2.39-2.44,3.34c3.19,1.55,6.75,2.43,8.01,6.36
			c0.22,0.41,0.49,0.77,0.83,1.09c3.11,2.1,6.68,3.7,8.17,7.55c0.16,0.16,0.33,0.32,0.49,0.48c2.14-0.88,2.33-3.19,3.6-4.31
			c-5.05-3.8-9.81-7.37-14.56-10.96c-1.13-0.86-3.34-1.3-2.74-3.05C407.97,508.35,410.3,508.01,411.98,508.56z M423.61,501.25
			c2.36,0.67,4.14,3.38,5.38,6.27c-1.03,0-1.69,0.09-2.32-0.02c-2.05-0.37-4.09-0.81-6.42-1.28
			C421.36,504.22,421.96,500.78,423.61,501.25z"/>
		<path class="st12" d="M131,378.54c-7.29-0.14-12.76,5.7-12.85,13.7c-0.08,6.96,5.3,12.25,12.54,12.33
			c7.48,0.08,12.52-5.11,12.61-12.97C143.37,384.56,137.82,378.66,131,378.54z M131.11,401.28c-7.01-0.16-11.43-4.14-11.16-10.05
			c0.26-5.86,4.38-9.31,10.85-9.08c6.91,0.24,11.37,3.97,11.3,9.43C142.02,397.45,137.52,401.43,131.11,401.28z"/>
		<path class="st13" d="M407.35,310.14c-0.97-1.14-2.13-2.13-3.09-3.28c-1.31-1.56-2.09-1.82-3.73,0.01
			c-3.88,4.35-7.88,8.69-12.39,12.34c-3.05,2.47-2.78,3.65,0.34,5.35c0.7-2.11,2.29-3.53,3.88-4.91c0.88-0.77,1.44-2.7,3.14-1.59
			c1.38,0.9,2.69,2.06,2.35,4.06c-0.26,1.48-0.66,2.95-0.75,4.43c-0.18,3.23-1.34,6.72,3.08,10.14c-1.26-4.23-0.25-7.48-0.19-10.78
			c0.05-2.52,0.72-3.65,3.56-4.2C410.57,320.35,411.99,315.6,407.35,310.14z M407.36,314.19c-0.47,3.45-2.48,5.86-6.17,6.08
			c-2.53,0.15-3.79-1.84-4.67-3.85c-0.4-0.91,6.52-7.41,7.71-7.3C406.15,310.19,407.68,311.83,407.36,314.19z"/>
		<path class="st11" d="M238.34,264.93c-7.87-1.47-13.6,6.17-13.9,12.01c-0.33,6.37,6.32,12.57,12.95,12.48
			c7.89-0.11,13.33-5.44,13.26-13C250.58,268.9,246.34,264.94,238.34,264.93z M238.94,287.83c-5.87-0.02-11-5.89-11.06-12.66
			c-0.05-5.13,3.9-9.05,9.22-9.17c5.81-0.13,10.87,5.75,10.88,12.64C247.99,284.06,244.26,287.85,238.94,287.83z"/>
		<g>
			<path class="st23" d="M356.61,274.34c-2.7-2.2-6.1-2.85-8.79-4.21c-1.58,6.7-4.87,12.38-7.58,18.27c-1.7,3.7-1.9,3.61,2.42,4.75
				c0.3-6.78,1.9-8.88,6.19-8.09c1.75,2.86,1.92,6.21,2.95,9.29c0.68,2.05,0.91,4.63,3.98,4.65c-0.64-2.49-1.04-5.09-2.01-7.44
				c-1.41-3.42-1.15-5.52,2.5-7.56C360.54,281.6,360.42,277.44,356.61,274.34z M356.11,280.08c-0.98,3.83-3.42,5.37-7.25,4.9
				c0.02,0.02,0.03,0.05,0.05,0.08c0,0-0.09-0.08-0.1-0.08c0.01,0,0.03,0,0.04,0c-2.1-2.66-1.2-9.5,1.54-11.52
				c1.17-0.87,2.15-0.25,3.16,0.34C356.01,275.25,356.81,277.31,356.11,280.08z"/>
			<path class="st23" d="M355.89,299c-0.04,0-0.07-0.01-0.11-0.01c0.01,0.03,0.01,0.06,0.02,0.09L355.89,299z"/>
		</g>
	</g>
</g>
</svg>
